/* XPM */
static char *diamond[] = {
/* columns rows colors chars-per-pixel */
"32 32 82 1 ",
"  c #130B1B",
". c #130C1B",
"X c #140B1C",
"o c #130C1C",
"O c #140C1C",
"+ c #221D2C",
"@ c #1F2231",
"# c #2E2E22",
"$ c #404624",
"% c #67782D",
"& c #403D44",
"* c #385562",
"= c #414352",
"- c #406773",
"; c #666767",
": c #6D802C",
"> c #72852F",
", c #758A2F",
"< c #89A533",
"1 c #90AB35",
"2 c #94B235",
"3 c #9FBF38",
"4 c #A3C638",
"5 c #A9CC3A",
"6 c #ABD03C",
"7 c #B2D83C",
"8 c #B7E03C",
"9 c #C3F03B",
"0 c #56949E",
"q c #7F9EA9",
"w c #5FA5AE",
"e c #79ABB5",
"r c #76AFB9",
"t c #76BCC2",
"y c #6CC1C9",
"u c #6DC2C9",
"i c #6DC1CA",
"p c #6CC2CA",
"a c #6DC2CA",
"s c #7FC9CB",
"d c #AB9F9C",
"f c #AB9F9D",
"g c #B2A19C",
"h c #8595A0",
"j c #8595A1",
"k c #8999A3",
"l c #92A2A9",
"z c #83BCBF",
"x c #9FB6B1",
"c c #96B8B6",
"v c #A3AEAB",
"b c #B1A5A0",
"n c #BBAFA3",
"m c #ABB5A7",
"M c #A8B3AC",
"N c #A9B9B6",
"B c #C5A69A",
"V c #D2A999",
"C c #D2AA98",
"Z c #D2AA99",
"A c #D3B4A2",
"S c #D5BBA8",
"D c #B1C1BB",
"F c #D8CCB7",
"G c #D9D2BD",
"H c #85CBCC",
"J c #9AD3CE",
"K c #B9C9C0",
"L c #BECEC3",
"P c #ACD6CC",
"I c #A5D8CF",
"U c #A5D8D0",
"Y c #B0DCD1",
"T c #BCE0D2",
"R c #D0E0CD",
"E c #D2E2CF",
"W c #C5E4D3",
"Q c #CCE7D4",
"! c #DEEDD5",
"~ c #DEEED5",
"^ c #DDEED6",
"/ c #DEEED6",
/* pixels */
"97879797898789979787979789878997",
"78967878767869787896787876786978",
"89898797898987868989879789898786",
"7878686898oXXoXXOOOoOO6898789898",
"96879787XX//^^////////XO86978787",
"7898787Oj/hhhhhfcca///^hO6797976",
"87879##wRljBBBvtPPQ////Bw#898787",
"76757OOa/jjZZZMaYY/////ZaX786879",
"8797 aaa/hZZppJ^///////Zhao77787",
"986O///aa///^^^^//////Caah^oO978",
"87O////Zaaa/^^^^/~///Caaj^^^/o87",
"52&////nzzaWWWWWWWWWWnaHk^^^/=19",
"<O/////aZZaaaaataaaaaaa/u~////o9",
"<oZ//aaa/Va////////~aa/hku~//aO7",
"79Oaaaa///Va///////aaahhhaaaaO86",
"68:-aaa///xxI///WYIaIaehDee--%98",
"978>*aa^/JMZMNLYHsyYNYpr^r=>,997",
"7896Oaa^/aZZVkNUtay/j/aa^aO86978",
"89898OOaaaZZVVgeYY/j//ajaO898786",
"7878685Xa//ZVVZFNNjj/pjjX8789898",
"96879784@//ZZZZbkkjE^yj+46978787",
"78987879O//ZZZZfjjj^^yho76797976",
"878797878O//ZZZfjjj^yho787898787",
"7676786679O/ZZZfKK^^po6679786879",
"87978786978O/ZZfKK^aO78697878787",
"98689898767$mSAfKL/0$89876797978",
"878797878787O/GbKK^O978787878687",
"7898789898787O;D==O8789898787879",
"86898767978697,O,>79876797869789",
"78787878689879787778787868987978",
"89876989879787868987698987978786",
"68987678687978986898767868797898"
};
