/* XPM */
static char *tree[] = {
/* columns rows colors chars-per-pixel */
"32 32 13 1 ",
"  c #323234",
". c #583C3C",
"X c #3A443D",
"o c #3A773C",
"O c #784838",
"+ c #465E47",
"@ c #4D8C51",
"# c #54A556",
"$ c #56BA51",
"% c #9C8454",
"& c #819050",
"* c #8C9C55",
"= c #98AA5C",
/* pixels */
"=***=*=**=***o@oo+o+=*=**=***==*",
"**=&*****&o@##$$#@oooo+**&**&=**",
"*=*=**=*o@$#$##$$#@@@oo+*=*=***&",
"****&*&+@#$$#@##@@##@@oo+X**=*=*",
"=&**=*oo###$##@o##@##@o@@+X*****",
"**=**o#$#$###@$#$$###$#o@oo+*=*&",
"****o$$#$$$##$$$$$#$##@o@#@++***",
"*&*&@$$$$###@$$$$#$#@@@##@@+X**=",
"**=o@#$#$$@@##$#@##@o@#@$@oo+X**",
"=*&+o@#@#@@#$##@@@@##@$###@+XX**",
"****oo@#@o@$$#$#@##@#$#@#@@o+X**",
"**=o@@o@#o#$$$###$$#$$$#oo@oX**=",
"*&o@$#@#@#@#$#$#$$#$#$#@@oo+oX*=",
"**@$$$#$@#####@##$$$$@#@o@+oX+**",
"*o#$$#$#@$#$#@#@######@o+ooo+Xo&",
"&o@##@#@$#$#$##@@#@#@oo@@@o@o++*",
"=oo@@#@#$$$$#$###o@@@##@o#@oooX*",
"*o+oo@@@$$$#$#o@#$#@##@##@o@o+X*",
"*=o+o++o##$$@#@#$$$#$###@@@ooX*&",
"***o@@o@o@###@@#$$#$###@#@ooX*=*",
"=&o@$#@#@oo@@@o@#@#@#@@o@oo+o+**",
"**o#####@@@o+o@oo@o@@o++oo+ooX*&",
"**o@#@#@o@$##@@#@o@##@o#ooo++X**",
"*&*ooo@o@#$$#$#@@@####@o@oX+X**=",
"**=*+oo+o@###@@o@#@#@o@o++XX****",
"=*&*=+X+oo@o@@o++o@@o@o++XX=*=**",
"****=**X+o+@ooo+Xoo+oo+XX****&**",
"**=***=*=+ooo+XX  ooXXX*=******=",
"*&*=**&*=**&= .O.  =**&*=**&=**=",
"********&*=**.O%O. *****&*=**=**",
"*=**&=*=**=***%%O.**&=*=**=****&",
"&*=**&**&**=**=*&*=**&**&**=**=*"
};
