/* XPM */
static char *_b48b587026a4881abd88bb30d3d2d6f4STVrbcMt8w2m9PE[] = {
/* columns rows colors chars-per-pixel */
"32 32 4 1 ",
"  c #ABD03C",
". c #B2D83C",
"X c #B7E03C",
"o c #C3F03B",
/* pixels */
"o.X.o.o.XoX.Xoo.o.X.o.o.XoX.Xoo.",
".Xo .X.X. .X o.X.Xo .X.X. .X o.X",
"XoXoX.o.XoXoX.X XoXoX.o.XoXoX.X ",
".X.X X XoX.XoXoX.X.X X XoX.XoXoX",
"o X.o.X.X o.X.X.o X.o.X.X o.X.X.",
".XoX.X.o. .o.o. .XoX.X.o. .o.o. ",
"X.X.o.X.X.XoX.X.X.X.o.X.X.XoX.X.",
". . .X  .o.X X.o. . .X  .o.X X.o",
"X.o.X.X o.X.X.X.X.o.X.X o.X.X.X.",
"oX XoXoX. .o.o.XoX XoXoX. .o.o.X",
"X.X.o.X.X.X.X X.X.X.o.X.X.X.X X.",
".XoX.XoXoX.X.X.o.XoX.XoXoX.X.X.o",
"X XoX. .o.X o.XoX XoX. .o.X o.Xo",
".X.X.X.X XoX.o.X.X.X.X.X XoX.o.X",
"XoX. oXoX.o.X.X XoX. oXoX.o.X.X ",
" XoX. .X X.o.XoX XoX. .X X.o.XoX",
"o.X.o.o.XoX.Xoo.o.X.o.o.XoX.Xoo.",
".Xo .X.X. .X o.X.Xo .X.X. .X o.X",
"XoXoX.o.XoXoX.X XoXoX.o.XoXoX.X ",
".X.X X XoX.XoXoX.X.X X XoX.XoXoX",
"o X.o.X.X o.X.X.o X.o.X.X o.X.X.",
".XoX.X.o. .o.o. .XoX.X.o. .o.o. ",
"X.X.o.X.X.XoX.X.X.X.o.X.X.XoX.X.",
". . .X  .o.X X.o. . .X  .o.X X.o",
"X.o.X.X o.X.X.X.X.o.X.X o.X.X.X.",
"oX XoXoX. .o.o.XoX XoXoX. .o.o.X",
"X.X.o.X.X.X.X X.X.X.o.X.X.X.X X.",
".XoX.XoXoX.X.X.o.XoX.XoXoX.X.X.o",
"X XoX. .o.X o.XoX XoX. .o.X o.Xo",
".X.X.X.X XoX.o.X.X.X.X.X XoX.o.X",
"XoX. oXoX.o.X.X XoX. oXoX.o.X.X ",
" XoX. .X X.o.XoX XoX. .X X.o.XoX"
};
