/* XPM */
static char *e4ac3fad9dad4b16b497b1abeb011a07xlQlutBhXd6ibKwp[] = {
/* columns rows colors chars-per-pixel */
"33 32 40 1 ",
"  c None",
". c #534721",
"X c #472278",
"o c #0E6349",
"O c #2E4C60",
"+ c #7A6843",
"@ c #767674",
"# c #C70000",
"$ c #FF2627",
"% c #8D7D56",
"& c #C79D00",
"* c #E3B700",
"= c #ABD03C",
"- c #B2D83C",
"; c #B7E03C",
": c #FFD600",
"> c #FFFC00",
", c #C3F03B",
"< c #CA9E73",
"1 c #C2AE6D",
"2 c #5E34A9",
"3 c #126DB3",
"4 c #476BBE",
"5 c #6F5BF7",
"6 c #7DCAB2",
"7 c #2196FC",
"8 c #43AEFF",
"9 c #B8B7B4",
"0 c #DDBD9C",
"q c #DFD796",
"w c #EEDAB3",
"e c #9194FF",
"r c #A3D3FF",
"t c #DAD9D6",
"y c #FDF0C5",
"u c #F2F0D1",
"i c #D0E1FF",
"p c #FFFEF2",
"a c #F7FFFE",
"s c white",
/* pixels */
",-;-,-,-;,;-;,,-,-;-,-,-;,;-;,,- ",
"-;,=-;-;-=-;=%%%.%%%-;-;-=-;=,-; ",
";,;,;-,-;,;%%.1.>.1.%%,-;,;,;-;= ",
"-;-;=;=;,;%1.>.:::.>.1%;,;-;,;,; ",
",=;-,-;-;%1q:#**$**#:q1%;=,-;-;- ",
"-;,;-;-,%1q.&*qqqqq*&.q1%=-,-,-= ",
";-;-,-;%1qq&quuuuuuuq&qq1%;,;-;- ",
"-=-=-;=%1qqqqqqqqqqqqqqq1%-;=;-, ",
";-,-;-%1qqq1qq1qqq1qq1qqq1%-;-;- ",
",;=;++%1q1q1qq1qqq1qq1q1q1%++,-; ",
";-;+0w<+q1q1qq1qqq1qq1q1q+<w0+;- ",
"-;,;+0w0qq1w11y111y11w1qq0w0+;-, ",
";=;,;+<0qqw444yyyyy444wqq0<+,-;, ",
"-;-;-%+<qq4aopyyyyypoa4qq<+%-,-; ",
";,;-%%1+uq4so6yyyyy6os4qu+1%%-;= ",
"=;,;%1%quqws33yyyyy33swquq%1%;,; ",
",-;%11%qqq0w77yyyyy77w0qqq%11%,- ",
"-;,%11%1qq+0wyyyyyyyw0+qq1%11%-; ",
";,;%1q%1qq2+<0wwwww0<+2qq1%q1%;= ",
"-;-%1qX%qqt9+++++++++9tqq%Xq1%,; ",
",=;%1X2e1q2588rwwwr8852q1e2X1%;- ",
"-;,%1X5t1qX5erririrre5Xq1t5X1%-= ",
";-;-%X95e1XX5ee5i5ee5XX1e59X%-;- ",
"-=-=-X<8rXO82222522228OXr8<X=;-, ",
";-,-;Xyy<+88rireeerir88+<yyX;-;- ",
",;=;X2yw+X828r9iii9r828X+wy2X,-; ",
";-;X259@X225e9ttttt9e522X@952X;- ",
"-;X25es@255eetssssstee552@se52X, ",
";=X55et@255e999ttt999e552@te55X, ",
"-;@9tt@X255etssssssste552X@tt9@; ",
";,;@@@;,XX299ttssstt992XX-,@@@;= ",
"=;,;-=-;=;X@@9999999@@X;=;-,-;,; "
};
