/* XPM */
static char *c2e7862696e54d16db4fd247450ded33OzX6qDbq3rdHW0fa[] = {
/* columns rows colors chars-per-pixel */
"32 32 24 1 ",
"  c black",
". c #2D3710",
"X c #0E1C2A",
"o c #56681E",
"O c #0A2B43",
"+ c #154466",
"@ c #0D4970",
"# c #ABD03C",
"$ c #B2D83C",
"% c #B7E03C",
"& c #C3F03B",
"* c #93C660",
"= c #99C660",
"- c #155581",
"; c #175B87",
": c #185986",
"> c #1F6798",
", c #2A6C98",
"< c #76B3AA",
"1 c #77B5AA",
"2 c #7AB9A9",
"3 c #348FCD",
"4 c #3F95CE",
"5 c #61A6CF",
/* pixels */
"&$%$&$&$%&%<122<2<1<2$&$%&%$%&&$",
"$%&#$%$%$=543333333345$%$#$%#&$%",
"%&%&%$&$345,:::::::33355%&%&%$%#",
"$%$%#%3355:::@@@@@@:::3355$%&%&%",
"&#%$3355:::@@@@33@@@@:::3355%$%$",
"$%3355:::::@@@@OO@@@@:::::3355$#",
"%$3355:::::@@@@OO@@@@:::::3355%$",
"$#3355:::>3;@@@OO3333@::::3355$&",
"%$3355::33@@@OOOOOO@@@::::3355%$",
"&%55::::33@@@OOOOOO@@@::::::335%",
"%355::::33@@@OOOOOO@@@@@::::335$",
"$355::3333@OOOOXX33OO@33::::335&",
"%355::::33@OOXXXXXXOO@33::::335&",
"$355::::@;3+OXXXXXXOO@@@33::335%",
"%355::::@;333XXXXXXOO@@@33::335#",
"#355::::@@@OOXXXXXXOO@@@33::335%",
"&355::::@@@OOOOXX33OO@@@33::335$",
"$355::::@@@OOOOXX33OO@@@33::335%",
"%355::::@@@@@OOXX33@@@@@::::335#",
"$%55:::::-@@@OOOOOO33@::::::335%",
"&#3355:::-@@@OOOOOO33@::::3355%$",
"$%3355:::>3;@@@OO33@@@::::3355$#",
"%$3355:::::@@3333@@@@:::::3355%$",
"$#$#3355:::@@@@@@@@@@:::3355#%$&",
"%$&$%$3355:::@@@@@@:::3355%$%$%$",
"&%#%&%3355::::::::::::3355$&$&$%",
"%$%$&$%$%*333333333345%$%$%$%#%$",
"$%&%$%&%&%$5555555555%&%&%$%$%$&",
"%#%&%$#$&$%5555555555$#$&$%#&$%&",
"$%$%$%$%#%&%$&$%$%$%$%$%#%&%$&$%",
"%&%$#&%&%$&$%$%#%&%$#&%&%$&$%$%#",
"#%&%$#$%#%.          o$%#%$&$%&%"
};
